<svg width="700" height="700" viewBox="0 0 700 700" fill="none" xmlns="http://www.w3.org/2000/svg">
<circle cx="351.167" cy="348.833" r="292.833" fill="#9A1818"/>
<path fill-rule="evenodd" clip-rule="evenodd" d="M438.707 219.865C443.565 221.353 447.823 224.829 449.273 228.491C449.617 229.357 449.935 232.55 449.981 235.589C447.915 248.274 421.518 238.114 448.844 255.015C449.518 256.11 454.791 258.504 460.361 260.246C467.172 262.376 470.505 262.175 474.712 259.38C476.888 257.935 478.093 257.509 479.22 257.788C481.681 258.397 482.095 259.165 480.996 261.086C480.074 262.697 480.09 262.91 481.254 264.514C481.937 265.455 482.53 267.233 482.572 268.465C482.645 270.616 482.769 270.737 485.694 271.502C487.369 271.94 489.983 272.143 491.503 271.954C494.165 271.623 508.799 268.531 509.19 268.217C510.664 267.031 494.568 259.641 496.418 257.788C498.239 255.962 519.685 265.175 523.071 266.691C527.844 268.828 533.914 272.971 538.391 277.147C542.669 281.138 545.921 286.241 549.314 294.291C553.772 304.864 555.869 308.449 560.4 313.245C565.808 318.969 566.52 320.351 565.534 323.209C564.996 324.768 564.942 326.352 565.347 328.709C566.303 334.278 563.584 338.41 558.963 338.41C556.848 338.41 556.134 338.019 553.819 335.596C551.921 333.609 550.003 332.369 547.297 331.38C544.324 330.292 542.63 329.124 539.738 326.163C534.715 321.021 534.884 321.12 528.043 319.337C516.204 316.252 512.442 313.493 511.084 306.899L510.346 303.312L502.919 310.715C498.834 314.786 492.153 321.304 488.073 325.199C481.439 331.532 480.386 332.833 478.109 337.514C473.966 346.032 470.159 361.158 470.904 366.141C471.472 369.942 473.407 372.479 478.324 375.866C483.982 379.764 484.756 380.626 488.114 386.771C489.686 389.648 491.663 392.909 492.506 394.019C494.926 397.2 501.861 401.714 513.231 407.507C522.599 412.28 524.13 413.285 527.416 416.813C535.633 425.636 537.763 427.424 549.119 435.03C558.458 441.285 562.362 443.509 567.647 445.586C575.131 448.528 581.824 453.255 588.045 459.995C593.386 465.782 594.177 470.783 590.004 472.375C587.183 473.451 580.219 473.775 575.855 473.035C566.315 471.415 563.025 469.311 561.143 463.627C560.559 461.867 559.294 459.178 558.329 457.654C557.365 456.129 556.576 454.513 556.576 454.063C556.576 452.928 554.665 452.313 548.602 451.499C542.255 450.647 541.15 449.918 534.942 442.5C527.816 433.984 523.504 431.127 513.545 428.324C505.929 426.18 502.192 424.1 495.266 418.15C488.665 412.48 485.693 410.349 481.373 408.186C477.29 406.142 468.205 403.163 467.675 403.694C467.234 404.136 467.231 405.261 467.625 420.332C467.845 428.725 467.75 429.825 466.575 432.371C463.754 438.485 460.168 441.135 450.371 444.346C442.296 446.993 438.138 449.443 429.498 456.643C427.641 458.191 425.155 459.711 423.973 460.022C419.97 461.074 401.027 462.631 397.295 462.214C390.75 461.483 387.14 458.885 387.984 455.513C388.781 452.33 398.134 441.041 401.363 439.367C402.285 438.889 404.114 438.497 405.427 438.497C407.519 438.497 408.167 438.888 410.669 441.654C414 445.336 415.015 445.389 420.267 442.147C422.293 440.897 425.43 439.767 429.066 438.977C438.961 436.828 444.581 433.567 447.774 428.119C449.259 425.585 449.445 424.661 449.405 420.025C449.366 415.362 449.041 413.922 446.434 406.829C444.824 402.45 443.22 397.324 442.87 395.438C441.833 389.856 441.192 388.661 438.495 387.281C426.42 381.103 412.583 380.2 380.079 383.468C363.07 385.179 356.602 384.393 331.721 377.594C311.208 371.989 306.102 371.22 289.61 371.25L275.878 371.274L272.421 373.067C258.191 380.445 245.578 387.334 241.951 389.712C239.464 391.341 234.031 396.204 229.059 401.248C223.677 406.708 218.169 411.595 214.325 414.321C205.966 420.249 202.696 423.869 193.605 437.266C190.732 441.499 186.655 448.424 184.545 452.655C181.311 459.14 180.023 461.029 176.337 464.699C173.933 467.092 169.756 470.384 167.054 472.014C164.353 473.644 160.815 476.036 159.192 477.329C153.289 482.032 149.7 481.767 148.287 476.522C146.395 469.5 148.956 459.943 153.94 455.427C156.114 453.457 156.738 453.202 158.68 453.486C168.183 454.88 167.606 455.057 169.401 450.196C169.964 448.672 172.809 444.378 175.723 440.652C182.539 431.941 187.913 423.93 190.133 419.172C191.1 417.099 192.578 412.293 193.415 408.493C194.253 404.694 195.376 400.737 195.909 399.702L196.88 397.819L194.552 398.793C187.119 401.901 181.417 405.761 166.441 417.822C153.482 428.259 149.766 430.226 141.271 431.148C137.535 431.553 132.007 432.776 127.151 434.27C113.307 438.53 108.445 438.17 109.278 432.945C110.476 425.431 114.845 417.813 119.653 414.854C124.462 411.895 132.001 412.49 132.479 415.867C132.606 416.757 133.169 417.324 134.054 417.45C135.085 417.597 136.479 416.562 139.579 413.347C143.592 409.187 143.845 409.035 147.41 408.625C150.109 408.314 152.65 407.376 156.925 405.112C166.52 400.031 171.462 396.221 180.56 386.89C185.287 382.043 190.398 377.309 191.918 376.372C193.437 375.434 197.443 373.611 200.819 372.319C215.395 366.744 223.284 361.168 225.242 355.057C225.784 353.367 226.479 348.241 226.787 343.666C227.57 332.053 228.435 330.446 238.967 321.041C243.886 316.648 248.397 311.283 248.397 309.824C248.397 309.087 236.617 310.368 231.71 311.639C225.344 313.287 216.882 316.859 208.493 321.44C196.384 328.052 196.677 327.97 185.165 327.97C173.197 327.97 171.817 327.637 159.074 321.687C145.762 315.472 139.01 313.438 127.827 312.274C121.734 311.641 112.542 312.282 109.146 313.577C107.376 314.251 107.028 314.047 107.563 312.648C108.283 310.767 113.071 308.585 121.075 306.492C126.188 305.155 131.828 303.1 136.996 300.692C153.458 293.021 158.871 291.617 171.659 291.7C180.811 291.76 183.153 292.071 202.968 295.859C219.584 299.036 234.8 301.208 243.179 301.601C251.006 301.968 253.708 301.523 265.989 297.835C268.744 297.009 273.302 296.155 276.119 295.938C299.856 294.112 323.285 301.788 346.944 302.282C361.258 302.58 363.849 302.148 365.693 299.152C368.694 294.278 367.696 292.523 361.043 290.972C346.201 287.51 338.138 282.784 334.343 275.321C332.17 271.05 332.486 268.276 335.935 261.356C340.438 252.322 344.585 248.45 358.846 239.967C371.068 232.698 378.543 229.14 387.9 226.141C397.983 222.909 405.258 222.615 413.018 225.127C416.435 226.233 416.524 226.231 418.85 224.989C429.509 219.295 429.529 219.288 433.409 219.343C435.479 219.371 437.863 219.607 438.707 219.865ZM393.56 255.336C386.765 257.099 370.564 265.14 370.564 266.751C370.564 267.621 373.56 268.889 379.772 270.646C390.638 273.72 400.684 279.579 402.46 283.878L403.216 285.709L407.609 285.41C416.894 284.777 417.446 284.408 412.073 282.423C408.41 281.07 409.03 280.556 415.443 279.637C424.351 278.359 433.181 276.273 433.181 275.446C433.182 275.005 434.217 274.192 435.484 273.638C438.72 272.225 445.494 272.401 454.361 274.13C460.053 275.239 463.892 275.574 471.244 275.599C474.313 275.059 476.155 274.13 470.13 271.926C467.511 270.724 465.797 270.396 462.114 270.395C449.963 270.391 441.981 268.403 427.193 261.7C414.944 256.148 409.217 254.463 402.462 254.42C399.579 254.402 395.573 254.815 393.56 255.336ZM383.492 293.642C383.039 294.912 382.54 296.297 382.382 296.72C381.923 297.957 383.299 297.608 384.659 296.142C386.287 294.39 386.316 291.333 384.704 291.333C384.491 291.333 383.945 292.372 383.492 293.642Z" fill="#FFDDDD"/>
</svg>
